<svg width="28" height="27" viewBox="0 0 28 27" fill="none" xmlns="http://www.w3.org/2000/svg">
<mask id="mask0_2439_14329" style="mask-type:luminance" maskUnits="userSpaceOnUse" x="0" y="0" width="28" height="27">
<path d="M27.0335 0.0666504H0.966797V26.1334H27.0335V0.0666504Z" fill="white"/>
</mask>
<g mask="url(#mask0_2439_14329)">
<path d="M23.1938 5.44619L15.2162 1.63345C14.37 1.22476 13.3723 1.28006 12.5762 1.78035L4.34429 6.96416C3.5482 7.46446 3.06619 8.34146 3.07028 9.28116L3.10061 18.0968C3.10478 19.1388 3.70239 20.0884 4.64074 20.543L12.6183 24.3558C13.4645 24.7645 14.4622 24.7092 15.2583 24.2089L23.4902 19.025C24.2863 18.5247 24.7683 17.6478 24.7642 16.7081L24.7488 11.9685L24.7356 7.89246C24.7315 6.85036 24.1338 5.90086 23.1972 5.44789L23.1938 5.44619Z" fill="white" stroke="#31373D" stroke-miterlimit="10"/>
<g opacity="0.8">
<mask id="path-3-inside-1_2439_14329" fill="white">
<path d="M11.9378 21.2565L6.24959 18.537C5.66805 18.2552 5.28935 17.654 5.28733 17.0061L5.26562 10.6409"/>
</mask>
<path d="M11.9378 21.2565L6.24959 18.537C5.66805 18.2552 5.28935 17.654 5.28733 17.0061L5.26562 10.6409" fill="white"/>
<path d="M6.24959 18.537L5.81351 19.4369L5.81826 19.4392L6.24959 18.537ZM5.28733 17.0061L6.28733 17.003L6.28733 17.0027L5.28733 17.0061ZM12.3691 20.3543L6.68093 17.6348L5.81826 19.4392L11.5065 22.1587L12.3691 20.3543ZM6.68567 17.6371C6.44789 17.5218 6.28816 17.2686 6.28733 17.003L4.28734 17.0092C4.29055 18.0393 4.88822 18.9885 5.81352 19.4369L6.68567 17.6371ZM6.28733 17.0027L6.26562 10.6375L4.26563 10.6443L4.28734 17.0095L6.28733 17.0027Z" fill="#31373D" mask="url(#path-3-inside-1_2439_14329)"/>
<path d="M11.9378 21.2565L6.24959 18.537C5.66805 18.2552 5.28935 17.654 5.28733 17.0061L5.26562 10.6409" stroke="#31373D" stroke-width="0.8" stroke-miterlimit="10"/>
<mask id="path-6-inside-2_2439_14329" fill="white">
<path d="M6.41034 9.79016L12.1708 12.2636C12.8519 12.563 13.2941 13.1897 13.2964 13.8653L13.3195 19.7238"/>
</mask>
<path d="M6.41034 9.79016L12.1708 12.2636C12.8519 12.563 13.2941 13.1897 13.2964 13.8653L13.3195 19.7238" fill="white"/>
<path d="M12.1708 12.2636L12.5731 11.3481L12.5653 11.3448L12.1708 12.2636ZM13.2964 13.8653L12.2965 13.8688L12.2965 13.8692L13.2964 13.8653ZM6.01578 10.709L11.7762 13.1825L12.5653 11.3448L6.8049 8.87129L6.01578 10.709ZM11.7684 13.1791C12.1368 13.341 12.2957 13.6398 12.2965 13.8688L14.2964 13.8618C14.2925 12.7396 13.5669 11.7849 12.5731 11.3482L11.7684 13.1791ZM12.2965 13.8692L12.3195 19.7278L14.3195 19.7199L14.2964 13.8614L12.2965 13.8692Z" fill="#31373D" mask="url(#path-6-inside-2_2439_14329)"/>
<path d="M7.45123 10.2191L12.3438 12.5858C12.9223 12.8722 13.2979 13.4719 13.2999 14.1183L13.3195 19.7239" stroke="#31373D" stroke-width="0.8" stroke-miterlimit="10"/>
<mask id="path-9-inside-3_2439_14329" fill="white">
<path d="M5.27819 13.2715L5.26813 10.1091C5.26792 9.82545 5.46469 9.67025 5.54991 9.61595C5.63513 9.56315 5.86138 9.45145 6.11726 9.57525L7.73782 10.3584"/>
</mask>
<path d="M5.27819 13.2715L5.26813 10.1091C5.26792 9.82545 5.46469 9.67025 5.54991 9.61595C5.63513 9.56315 5.86138 9.45145 6.11726 9.57525L7.73782 10.3584" fill="white"/>
<path d="M5.26813 10.1091L4.26812 10.1099L4.26813 10.1123L5.26813 10.1091ZM5.54991 9.61595L5.02319 8.76582L5.01255 8.7726L5.54991 9.61595ZM6.11726 9.57525L5.68173 10.4754L5.68212 10.4756L6.11726 9.57525ZM6.27818 13.2684L6.26812 10.106L4.26813 10.1123L4.27819 13.2747L6.27818 13.2684ZM6.26813 10.1084C6.26821 10.215 6.22674 10.3092 6.18157 10.3704C6.14457 10.4205 6.108 10.4461 6.08727 10.4593L5.01255 8.7726C4.83195 8.88767 4.26753 9.30536 4.26813 10.1099L6.26813 10.1084ZM6.07659 10.466C6.05719 10.478 6.019 10.4997 5.95818 10.5114C5.88379 10.5257 5.77962 10.5228 5.68173 10.4754L6.55278 8.67507C5.82432 8.32263 5.19966 8.65657 5.02323 8.76588L6.07659 10.466ZM5.68212 10.4756L7.30268 11.2588L8.17296 9.45808L6.55239 8.67488L5.68212 10.4756Z" fill="#31373D" mask="url(#path-9-inside-3_2439_14329)"/>
<path d="M5.27819 13.2715L5.26813 10.1091C5.26792 9.82545 5.46469 9.67025 5.54991 9.61595C5.63513 9.56315 5.86138 9.45145 6.11726 9.57525L7.73782 10.3584" stroke="#31373D" stroke-width="0.8" stroke-miterlimit="10"/>
<mask id="path-12-inside-4_2439_14329" fill="white">
<path d="M13.3106 17.5647L13.3224 21.0294C13.3226 21.3115 13.1383 21.4589 13.0593 21.5086C12.9802 21.5583 12.7679 21.6623 12.5136 21.5385L8.93127 19.8296"/>
</mask>
<path d="M13.3106 17.5647L13.3224 21.0294C13.3226 21.3115 13.1383 21.4589 13.0593 21.5086C12.9802 21.5583 12.7679 21.6623 12.5136 21.5385L8.93127 19.8296" fill="white"/>
<path d="M13.3224 21.0294L14.3224 21.0287L14.3224 21.026L13.3224 21.0294ZM13.0593 21.5086L13.5913 22.3553L13.5918 22.355L13.0593 21.5086ZM12.5136 21.5385L12.9513 20.6394L12.9441 20.6359L12.5136 21.5385ZM12.3106 17.5681L12.3224 21.0328L14.3224 21.026L14.3106 17.5613L12.3106 17.5681ZM12.3224 21.0301C12.3223 20.9372 12.357 20.8447 12.4067 20.7751C12.4481 20.717 12.493 20.6834 12.5268 20.6622L13.5918 22.355C13.7973 22.2257 14.3229 21.8123 14.3224 21.0287L12.3224 21.0301ZM12.5273 20.6619C12.5569 20.6433 12.6062 20.6166 12.6782 20.6039C12.7646 20.5886 12.8658 20.5978 12.9513 20.6394L12.0759 22.4376C12.7881 22.7843 13.3924 22.4803 13.5913 22.3553L12.5273 20.6619ZM12.9441 20.6359L9.36183 18.927L8.50072 20.7322L12.083 22.4411L12.9441 20.6359Z" fill="#31373D" mask="url(#path-12-inside-4_2439_14329)"/>
<path d="M13.3106 17.5647L13.3224 21.0294C13.3226 21.3115 13.1383 21.4589 13.0593 21.5086C12.9802 21.5583 12.7679 21.6623 12.5136 21.5385L8.93127 19.8296" stroke="#31373D" stroke-width="0.8" stroke-miterlimit="10"/>
</g>
</g>
</svg>
