<svg width="28" height="20" viewBox="0 0 28 20" fill="none" xmlns="http://www.w3.org/2000/svg">
<path d="M14 0C12.7292 0 11.5 0.28125 10.3125 0.84375C9.22917 1.36458 8.26042 2.10417 7.40625 3.0625L7.25 3.03125C7.14583 3.01042 7.0625 3 7 3C6.27083 3 5.60417 3.1875 5 3.5625C4.39583 3.91667 3.90625 4.39583 3.53125 5C3.17708 5.60417 3 6.27083 3 7C2.10417 7.54167 1.38542 8.23958 0.84375 9.09375C0.28125 9.98958 0 10.9688 0 12.0312C0 13.0938 0.270833 14.0833 0.8125 15C1.35417 15.9167 2.08333 16.6458 3 17.1875C3.91667 17.7292 4.91667 18 6 18H11V16H6C5.27083 16 4.59375 15.8229 3.96875 15.4688C3.36458 15.1146 2.88542 14.6354 2.53125 14.0312C2.17708 13.4062 2 12.7292 2 12C2 11.1875 2.21875 10.4479 2.65625 9.78125C3.11458 9.11458 3.70833 8.625 4.4375 8.3125L5.125 8.03125L5 7C5 6.4375 5.1875 5.96875 5.5625 5.59375C5.95833 5.19792 6.4375 5 7 5C7.14583 5 7.30208 5.02083 7.46875 5.0625L8.09375 5.21875L8.46875 4.71875C9.11458 3.88542 9.91667 3.22917 10.875 2.75C11.8542 2.25 12.8854 2 13.9688 2C15.0521 2 16.0625 2.22917 17 2.6875C17.9583 3.14583 18.7604 3.78125 19.4062 4.59375C20.0729 5.38542 20.5312 6.28125 20.7812 7.28125L20.9688 8.0625L21.8125 8.03125C22.1875 8.01042 22.25 8 22 8C22.7292 8 23.3958 8.17708 24 8.53125C24.625 8.88542 25.1146 9.375 25.4688 10C25.8229 10.6042 26 11.2708 26 12C26 12.7292 25.8229 13.4062 25.4688 14.0312C25.1146 14.6354 24.625 15.1146 24 15.4688C23.3958 15.8229 22.7292 16 22 16H17V18H22C23.0833 18 24.0833 17.7292 25 17.1875C25.9167 16.6458 26.6458 15.9167 27.1875 15C27.7292 14.0833 28 13.0833 28 12C28 10.9583 27.75 10 27.25 9.125C26.75 8.25 26.0729 7.55208 25.2188 7.03125C24.3646 6.48958 23.4271 6.17708 22.4062 6.09375C21.9896 4.92708 21.3646 3.88542 20.5312 2.96875C19.7188 2.03125 18.7604 1.3125 17.6562 0.8125C16.5104 0.270833 15.2917 0 14 0ZM14 8L10 12H13V20H15V12H18L14 8Z" fill="#1B51E5"/>
</svg>
